<svg width="188" height="76" viewBox="0 0 188 76" fill="none" xmlns="http://www.w3.org/2000/svg">
<path d="M112.04 0.109974C111.99 0.0999742 111.94 0.109974 111.89 0.109974C111.85 0.109974 111.81 0.109974 111.76 0.109974V0.119974C104.24 0.209974 97.32 4.02997 93.21 8.23997C95.77 11.43 97.66 15.16 98.7 19.23C100.86 15.34 106.44 10.95 112 11.18C120.35 11.27 127.27 18.06 127.27 26.42V26.52C127.22 34.9 120.41 41.66 112.03 41.66C103.64 41.66 96.84 34.9 96.79 26.52V26.42C96.79 20.38 94.75 14.82 91.33 10.38C86.53 4.12997 78.98 0.109974 70.49 0.109974C55.97 0.109974 44.21 11.86 44.17 26.37V26.52C44.2 33.76 47.15 40.32 51.91 45.06C56.67 49.8 65.37 53.92 73.29 52.79V52.73C79.45 51.97 84.95 49.09 89.04 44.83C86.45 41.66 84.52 37.95 83.44 33.89C81.29 37.85 77.43 40.75 72.84 41.6V41.67C63.04 43.08 55.29 34.77 55.24 26.52C55.27 22.34 56.98 18.55 59.74 15.81C62.49 13.07 66.28 11.38 70.48 11.38C78.9 11.38 85.72 18 85.72 26.42V26.43C85.72 26.46 85.72 26.5 85.72 26.53C85.74 32.62 87.83 38.23 91.33 42.68C96.14 48.81 103.63 52.75 112.03 52.75C126.56 52.75 138.35 41.17 138.35 26.63V26.43C138.36 11.98 126.45 0.259974 112.04 0.109974Z" fill="#00AEEF"/>
<path d="M44.88 44.99C42.28 41.82 40.34 38.09 39.26 34.01C37.1 37.98 33.23 40.73 28.64 41.59C27.91 41.69 27.17 41.75 26.41 41.75C22.2 41.75 18.39 40.05 15.63 37.3C12.87 34.55 11.15 30.75 11.12 26.55C11.18 18.27 18.94 9.92 28.79 11.34C28.94 11.36 29.09 11.38 29.24 11.41C33.27 12.48 36.63 15.01 38.59 18.52C39.67 14.54 41.61 10.9 44.21 7.8C40 3.53 34.31 0.66 27.95 0V0.05V0.06C21.82 -0.39 15.37 2.09 10.74 5.44C9.64 6.24 8.64 7.08 7.77 7.94C2.99 12.71 0.03 19.29 0 26.56V26.71C0 26.95 0 27.18 0.01 27.42V27.43C0.42 41.66 12.08 53.07 26.41 53.07C27.16 53.07 27.9 53.04 28.63 52.98V52.99C35 52.31 40.68 49.37 44.88 44.99Z" fill="#00AEEF"/>
<path d="M165.4 0.190002C152.9 0.190002 142.78 10.36 142.78 22.93C142.78 23.4 142.8 23.88 142.83 24.34V70.6L144.94 72.53V36.05H144.99C145.12 35.66 145.49 35.38 145.94 35.38C146.39 35.38 146.76 35.66 146.89 36.05H146.93C146.93 36.06 146.94 36.07 146.94 36.07V75.12H147.04L149.15 73.04L152.7 68.79V66.78L150.97 65.24L151.93 62.94V61.21L150.68 60.63L150.59 57.37L151.93 56.12V53.44L150.2 52.19V50L153.56 47.98V42.3C157.01 44.43 161.06 45.66 165.4 45.66C177.88 45.66 188 35.47 188 22.92C188 10.36 177.87 0.190002 165.4 0.190002ZM165.4 36.33C158.03 36.33 152.06 30.34 152.06 22.93C152.06 15.52 158.03 9.5 165.4 9.5C172.76 9.5 178.72 15.51 178.72 22.92C178.72 30.33 172.76 36.33 165.4 36.33Z" fill="#00AEEF"/>
<path d="M0.190002 57.3301C1.01 57.1701 2.69 57.05 4.25 57.05C6.17 57.05 7.35 57.2301 8.36 57.8101C9.33 58.3101 10.03 59.2301 10.03 60.4501C10.03 61.6501 9.31 62.77 7.74 63.34V63.3801C9.33 63.8001 10.51 64.96 10.51 66.71C10.51 67.93 9.93 68.8901 9.07 69.5801C8.06 70.3601 6.37 70.8001 3.6 70.8001C2.05 70.8001 0.900002 70.7 0.200002 70.6V57.3301H0.190002ZM3.3 62.5H4.33C5.98 62.5 6.87 61.84 6.87 60.84C6.87 59.82 6.07 59.28 4.64 59.28C3.96 59.28 3.57 59.3201 3.3 59.3601V62.5V62.5ZM3.3 68.49C3.61 68.53 3.98 68.53 4.52 68.53C5.94 68.53 7.2 68.01 7.2 66.59C7.2 65.23 5.94 64.6901 4.37 64.6901H3.3V68.49Z" fill="#00AEEF"/>
<path d="M18.34 70.65L18.15 69.67H18.09C17.43 70.45 16.4 70.87 15.2 70.87C13.16 70.87 11.94 69.43 11.94 67.86C11.94 65.32 14.29 64.09 17.86 64.11V63.97C17.86 63.45 17.57 62.71 16.02 62.71C14.99 62.71 13.89 63.05 13.23 63.45L12.65 61.49C13.35 61.11 14.73 60.63 16.57 60.63C19.93 60.63 21.01 62.55 21.01 64.86V68.27C21.01 69.21 21.05 70.11 21.15 70.65H18.34V70.65ZM17.97 66.02C16.32 66 15.04 66.38 15.04 67.56C15.04 68.34 15.58 68.72 16.28 68.72C17.06 68.72 17.7 68.22 17.91 67.6C17.95 67.44 17.97 67.26 17.97 67.08V66.02V66.02Z" fill="#00AEEF"/>
<path d="M23.5 63.98C23.5 62.76 23.46 61.72 23.42 60.85H26.14L26.28 62.19H26.34C26.75 61.57 27.78 60.63 29.46 60.63C31.52 60.63 33.07 61.95 33.07 64.84V70.65H29.93V65.22C29.93 63.96 29.48 63.1 28.34 63.1C27.47 63.1 26.96 63.68 26.75 64.24C26.67 64.42 26.63 64.72 26.63 65V70.65H23.5V63.98Z" fill="#00AEEF"/>
<path d="M38.72 64.9801H38.76C38.99 64.5801 39.23 64.1801 39.48 63.8001L41.52 60.8601H45.3L41.69 64.8301L45.82 70.6601H41.96L39.53 66.6301L38.73 67.59V70.6601H35.59V56.4301H38.73V64.9801H38.72Z" fill="#00AEEF"/>
<path d="M60.9 65.64C60.9 69.23 58.28 70.87 55.58 70.87C52.63 70.87 50.36 68.99 50.36 65.82C50.36 62.65 52.51 60.63 55.75 60.63C58.84 60.63 60.9 62.7 60.9 65.64ZM53.6 65.74C53.6 67.42 54.32 68.69 55.66 68.69C56.88 68.69 57.66 67.51 57.66 65.74C57.66 64.28 57.08 62.79 55.66 62.79C54.16 62.8 53.6 64.3 53.6 65.74Z" fill="#00AEEF"/>
<path d="M63.19 70.65V63.1H61.87V60.86H63.19V60.48C63.19 59.3 63.56 58 64.47 57.19C65.25 56.47 66.35 56.21 67.26 56.21C67.96 56.21 68.5 56.29 68.93 56.41L68.81 58.75C68.54 58.67 68.21 58.61 67.8 58.61C66.77 58.61 66.34 59.39 66.34 60.35V60.85H68.36V63.09H66.36V70.64H63.19V70.65Z" fill="#00AEEF"/>
<path d="M86.88 63.7601C86.88 68.1901 84.11 70.8701 80.05 70.8701C75.92 70.8701 73.51 67.8401 73.51 64.0001C73.51 59.9501 76.17 56.9301 80.28 56.9301C84.55 56.9301 86.88 60.0301 86.88 63.7601ZM76.83 63.9401C76.83 66.5801 78.11 68.4501 80.21 68.4501C82.34 68.4501 83.55 66.4901 83.55 63.8601C83.55 61.4401 82.35 59.3501 80.19 59.3501C78.07 59.3501 76.83 61.3101 76.83 63.9401Z" fill="#00AEEF"/>
<path d="M88.9 64.08C88.9 62.64 88.86 61.7 88.82 60.85H91.52L91.62 62.65H91.7C92.22 61.23 93.45 60.63 94.42 60.63C94.71 60.63 94.85 60.63 95.08 60.67V63.54C94.85 63.5 94.58 63.46 94.23 63.46C93.07 63.46 92.29 64.06 92.08 65C92.04 65.2 92.02 65.44 92.02 65.68V70.65H88.9V64.08Z" fill="#00AEEF"/>
<path d="M106.56 65.64C106.56 69.23 103.94 70.87 101.24 70.87C98.29 70.87 96.02 68.99 96.02 65.82C96.02 62.65 98.17 60.63 101.41 60.63C104.49 60.63 106.56 62.7 106.56 65.64ZM99.25 65.74C99.25 67.42 99.97 68.69 101.31 68.69C102.53 68.69 103.31 67.51 103.31 65.74C103.31 64.28 102.73 62.79 101.31 62.79C99.81 62.8 99.25 64.3 99.25 65.74Z" fill="#00AEEF"/>
<path d="M108.5 63.98C108.5 62.76 108.46 61.72 108.42 60.85H111.06L111.2 62.17H111.26C111.69 61.55 112.58 60.63 114.31 60.63C115.61 60.63 116.64 61.27 117.08 62.29H117.12C117.49 61.79 117.95 61.39 118.42 61.11C118.98 60.79 119.6 60.63 120.34 60.63C122.28 60.63 123.74 61.95 123.74 64.88V70.65H120.69V65.32C120.69 63.9 120.22 63.08 119.2 63.08C118.48 63.08 117.96 63.56 117.76 64.14C117.68 64.36 117.64 64.68 117.64 64.92V70.65H114.59V65.16C114.59 63.92 114.14 63.08 113.15 63.08C112.35 63.08 111.87 63.68 111.69 64.18C111.59 64.42 111.57 64.7 111.57 64.94V70.65H108.52V63.98H108.5Z" fill="#00AEEF"/>
<path d="M129.48 58.13C129.48 58.97 128.82 59.65 127.79 59.65C126.8 59.65 126.14 58.97 126.16 58.13C126.14 57.25 126.8 56.59 127.81 56.59C128.82 56.59 129.46 57.25 129.48 58.13ZM126.24 70.65V60.85H129.38V70.65H126.24Z" fill="#00AEEF"/>
<path d="M137.63 70.65L137.44 69.67H137.38C136.72 70.45 135.69 70.87 134.49 70.87C132.45 70.87 131.23 69.43 131.23 67.86C131.23 65.32 133.58 64.09 137.15 64.11V63.97C137.15 63.45 136.86 62.71 135.31 62.71C134.28 62.71 133.18 63.05 132.52 63.45L131.94 61.49C132.64 61.11 134.02 60.63 135.86 60.63C139.22 60.63 140.3 62.55 140.3 64.86V68.27C140.3 69.21 140.34 70.11 140.44 70.65H137.63V70.65ZM137.25 66.02C135.6 66 134.32 66.38 134.32 67.56C134.32 68.34 134.86 68.72 135.56 68.72C136.34 68.72 136.98 68.22 137.19 67.6C137.23 67.44 137.25 67.26 137.25 67.08V66.02Z" fill="#00AEEF"/>
</svg>
