<svg width="1300" height="800" viewBox="0 0 1300 800" fill="none" xmlns="http://www.w3.org/2000/svg">
<rect width="1300" height="800" fill="#141413"/>
<mask id="mask0_4454_13409" style="mask-type:alpha" maskUnits="userSpaceOnUse" x="0" y="0" width="1300" height="800">
<rect width="1300" height="800" fill="#FCFBFA"/>
</mask>
<g mask="url(#mask0_4454_13409)">
<path d="M857.931 373.223C811.179 420.512 811.623 496.751 858.936 543.55C906.249 590.348 982.533 589.951 1029.29 542.661C1076.04 495.372 1075.57 419.111 1028.26 372.312C980.921 325.536 904.683 325.933 857.931 373.223Z" fill="#222222" stroke="#222222" stroke-miterlimit="10"/>
<path d="M949.099 320.676C979.59 289.835 979.309 240.116 948.445 209.579C917.581 179.065 867.861 179.322 837.347 210.163C806.857 241.004 807.16 290.723 838.001 321.26C868.866 351.774 918.585 351.517 949.099 320.676Z" fill="#222222" stroke="#222222" stroke-miterlimit="10"/>
<path d="M763.726 1292.59C994.683 1127.71 1048.19 806.703 883.189 575.582C718.213 344.461 397.232 290.746 166.252 455.606C-64.7284 620.465 -118.209 941.492 46.7901 1172.61C211.789 1403.73 532.769 1457.47 763.726 1292.59Z" fill="#222222" stroke="#222222" stroke-miterlimit="10"/>
<path d="M1469.03 991.795C1611.71 889.95 1644.75 691.633 1542.84 548.876C1440.9 406.073 1242.6 372.896 1099.94 474.741C957.277 576.587 924.216 774.904 1026.16 917.707C1128.07 1060.46 1326.36 1093.64 1469.03 991.795Z" fill="#222222" stroke="#222222" stroke-miterlimit="10"/>
<path d="M1166.74 35V37.3365C1224.52 37.3365 1278.96 62.7103 1316.04 106.962C1385.03 189.252 1374.21 312.312 1291.95 381.307C1256.95 410.653 1212.53 426.821 1166.93 426.821C1109.12 426.821 1054.71 401.447 1017.6 357.195C984.192 317.335 968.281 266.845 972.838 215.046C977.394 163.224 1001.86 116.285 1041.69 82.8739C1076.69 53.5282 1121.08 37.3598 1166.72 37.3598L1166.74 35ZM1166.74 35C1122.07 35 1077.14 50.117 1040.22 81.0748C956.833 151.004 945.899 275.303 1015.83 358.69C1054.8 405.186 1110.66 429.134 1166.95 429.134C1211.62 429.134 1256.55 414.017 1293.47 383.059C1376.85 313.13 1387.79 188.831 1317.86 105.444C1278.86 58.9486 1223 34.9767 1166.74 35Z" fill="#222222"/>
</g>
</svg>
